<svg id="visual" viewBox="0 0 900 600" width="900" height="600" xmlns="http://www.w3.org/2000/svg" xmlns:xlink="http://www.w3.org/1999/xlink" version="1.1"><rect x="0" y="0" width="900" height="600" fill="#002233"></rect><path d="M0 446L16.7 452C33.3 458 66.7 470 100 459.8C133.3 449.7 166.7 417.3 200 409C233.3 400.7 266.7 416.3 300 436C333.3 455.7 366.7 479.3 400 467.5C433.3 455.7 466.7 408.3 500 390.2C533.3 372 566.7 383 600 403C633.3 423 666.7 452 700 444.8C733.3 437.7 766.7 394.3 800 388.8C833.3 383.3 866.7 415.7 883.3 431.8L900 448L900 601L883.3 601C866.7 601 833.3 601 800 601C766.7 601 733.3 601 700 601C666.7 601 633.3 601 600 601C566.7 601 533.3 601 500 601C466.7 601 433.3 601 400 601C366.7 601 333.3 601 300 601C266.7 601 233.3 601 200 601C166.7 601 133.3 601 100 601C66.7 601 33.3 601 16.7 601L0 601Z" fill="#0066FF" stroke-linecap="round" stroke-linejoin="miter"></path></svg>