<svg id="visual" viewBox="0 0 960 300" width="960" height="300" xmlns="http://www.w3.org/2000/svg" xmlns:xlink="http://www.w3.org/1999/xlink" version="1.1"><rect x="0" y="0" width="960" height="300" fill="#002233"></rect><path d="M0 41L20 43C40 45 80 49 120 57.5C160 66 200 79 240 84C280 89 320 86 360 78.5C400 71 440 59 480 56.8C520 54.7 560 62.3 600 71.8C640 81.3 680 92.7 720 97C760 101.3 800 98.7 840 96.5C880 94.3 920 92.7 940 91.8L960 91L960 0L940 0C920 0 880 0 840 0C800 0 760 0 720 0C680 0 640 0 600 0C560 0 520 0 480 0C440 0 400 0 360 0C320 0 280 0 240 0C200 0 160 0 120 0C80 0 40 0 20 0L0 0Z" fill="#0066FF" stroke-linecap="round" stroke-linejoin="miter"></path></svg>