<svg id="visual" viewBox="0 0 960 100" width="960" height="100" xmlns="http://www.w3.org/2000/svg" xmlns:xlink="http://www.w3.org/1999/xlink" version="1.1"><rect x="0" y="0" width="960" height="100" fill="#f7f8fa"></rect><path d="M0 58L17.8 59.2C35.7 60.3 71.3 62.7 106.8 63.3C142.3 64 177.7 63 213.2 54.2C248.7 45.3 284.3 28.7 320 20.5C355.7 12.3 391.3 12.7 426.8 22C462.3 31.3 497.7 49.7 533.2 55.5C568.7 61.3 604.3 54.7 640 50.7C675.7 46.7 711.3 45.3 746.8 40C782.3 34.7 817.7 25.3 853.2 26.3C888.7 27.3 924.3 38.7 942.2 44.3L960 50L960 0L942.2 0C924.3 0 888.7 0 853.2 0C817.7 0 782.3 0 746.8 0C711.3 0 675.7 0 640 0C604.3 0 568.7 0 533.2 0C497.7 0 462.3 0 426.8 0C391.3 0 355.7 0 320 0C284.3 0 248.7 0 213.2 0C177.7 0 142.3 0 106.8 0C71.3 0 35.7 0 17.8 0L0 0Z" fill="#FEF9C2" stroke-linecap="round" stroke-linejoin="miter"></path></svg>